<?xml version="1.0" encoding="UTF-8" standalone="no"?>
<!-- Created with Inkscape (http://www.inkscape.org/) -->

<svg
   xmlns:dc="http://purl.org/dc/elements/1.1/"
   xmlns:cc="http://creativecommons.org/ns#"
   xmlns:rdf="http://www.w3.org/1999/02/22-rdf-syntax-ns#"
   xmlns:svg="http://www.w3.org/2000/svg"
   xmlns="http://www.w3.org/2000/svg"
   xmlns:sodipodi="http://sodipodi.sourceforge.net/DTD/sodipodi-0.dtd"
   xmlns:inkscape="http://www.inkscape.org/namespaces/inkscape"
   id="svg7384"
   height="16"
   width="16"
   version="1.1"
   inkscape:version="0.48.3.1 r9886"
   sodipodi:docname="load.svg">
  <defs
     id="defs12" />
  <sodipodi:namedview
     pagecolor="#ffffff"
     bordercolor="#666666"
     borderopacity="1"
     objecttolerance="10"
     gridtolerance="10"
     guidetolerance="10"
     inkscape:pageopacity="0"
     inkscape:pageshadow="2"
     inkscape:window-width="1551"
     inkscape:window-height="876"
     id="namedview10"
     showgrid="false"
     inkscape:zoom="14.75"
     inkscape:cx="8"
     inkscape:cy="8"
     inkscape:window-x="49"
     inkscape:window-y="24"
     inkscape:window-maximized="1"
     inkscape:current-layer="svg7384" />
  <metadata
     id="metadata90">
    <rdf:RDF>
      <cc:Work
         rdf:about="">
        <dc:format>image/svg+xml</dc:format>
        <dc:type
           rdf:resource="http://purl.org/dc/dcmitype/StillImage" />
        <dc:title>Gnome Symbolic Icon Theme</dc:title>
      </cc:Work>
    </rdf:RDF>
  </metadata>
  <title
     id="title9167">Gnome Symbolic Icon Theme</title>
  <path
     inkscape:connector-curvature="0"
     d="M 4.406,9 A 0.50005,0.50005 0 0 0 4.0935,9.21875 l -1,1.5 a 0.50005,0.50005 0 1 0 0.8125,0.5625 l 1,-1.5 a 0.50005,0.50005 0 0 0 -0.5,-0.78 z m 7,0 a 0.50005,0.50005 0 0 0 -0.3125,0.78125 l 1,1.5 a 0.50005,0.50005 0 1 0 0.8125,-0.5625 l -1,-1.5 a 0.50005,0.50005 0 0 0 -0.5,-0.22 z"
     style="text-indent:0;text-transform:none;block-progression:tb;color:#bebebe;fill:#bebebe"
     id="rect4390-9" />
  <path
     id="path3613"
     style="text-indent:0;text-transform:none;block-progression:tb;color:#000000;fill:#bebebe"
     d="M 7,10.0013 V 4.4388 L 5.7188,5.72 C 5.5288,5.91 5.2688,6 4.9988,6 h -1 V 5 c 1e-5,-0.2653 0.0931,-0.53058 0.28125,-0.71875 l 3,-3 L 7.5613,1 h 0.875 l 0.28125,0.28125 3,3 c 0.19,0.19 0.28,0.45 0.28,0.72 v 1 h -1 C 10.73225,6.00124 10.46696,5.90815 10.2788,5.72 L 8.9988,4.44 V 10 z"
     inkscape:connector-curvature="0" />
  <path
     id="rect11668-7-5"
     style="color:#000000;fill:#bebebe;fill-rule:evenodd"
     d="m 3,11 v 4 h 10 v -4 z m 3.3438,1.4375 c 0.0208,-10e-4 0.0417,-10e-4 0.0625,0 0.29096,-0.0556 0.59898,0.20383 0.59375,0.5 V 13 h 2 v -0.0625 c -0.004,-0.26416 0.23582,-0.50712 0.5,-0.50712 0.26418,0 0.50373,0.24296 0.5,0.50712 v 0.06 c 0,0.54535 -0.45465,1 -1,1 h -2 c -0.54535,0 -1,-0.45465 -1,-1 V 12.935 c -0.0108,-0.21706 0.13723,-0.43234 0.34375,-0.5 z"
     inkscape:connector-curvature="0" />
</svg>
