<?xml version="1.0" encoding="UTF-8" standalone="no"?>
<!-- Generator: Adobe Illustrator 14.0.0, SVG Export Plug-In . SVG Version: 6.00 Build 43363)  -->

<svg
   xmlns:dc="http://purl.org/dc/elements/1.1/"
   xmlns:cc="http://creativecommons.org/ns#"
   xmlns:rdf="http://www.w3.org/1999/02/22-rdf-syntax-ns#"
   xmlns:svg="http://www.w3.org/2000/svg"
   xmlns="http://www.w3.org/2000/svg"
   xmlns:sodipodi="http://sodipodi.sourceforge.net/DTD/sodipodi-0.dtd"
   xmlns:inkscape="http://www.inkscape.org/namespaces/inkscape"
   version="1.0"
   id="Layer_1"
   x="0px"
   y="0px"
   width="32"
   height="32"
   viewBox="0 0 32.000001 32"
   enable-background="new 0 0 84.047 100"
   xml:space="preserve"
   sodipodi:docname="1540362157.svg"
   inkscape:version="0.92.3 (2405546, 2018-03-11)"><metadata
   id="metadata76"><rdf:RDF><cc:Work
       rdf:about=""><dc:format>image/svg+xml</dc:format><dc:type
         rdf:resource="http://purl.org/dc/dcmitype/StillImage" /><dc:title /></cc:Work></rdf:RDF></metadata><defs
   id="defs74" /><sodipodi:namedview
   pagecolor="#ffffff"
   bordercolor="#666666"
   borderopacity="1"
   objecttolerance="10"
   gridtolerance="10"
   guidetolerance="10"
   inkscape:pageopacity="0"
   inkscape:pageshadow="2"
   inkscape:window-width="973"
   inkscape:window-height="713"
   id="namedview72"
   showgrid="false"
   inkscape:zoom="7.3821948"
   inkscape:cx="10.618134"
   inkscape:cy="14.13827"
   inkscape:window-x="51"
   inkscape:window-y="27"
   inkscape:window-maximized="1"
   inkscape:current-layer="Layer_1"
   fit-margin-top="0"
   fit-margin-left="0"
   fit-margin-right="0"
   fit-margin-bottom="0" />
<path
   d="m 22.168168,7.83392 c -0.838007,0 -1.520673,0.57184 -1.520673,1.28192 0,0.7088 0.682666,1.28032 1.520673,1.28032 0.840672,0 1.520673,-0.57152 1.520673,-1.28032 0,-0.71008 -0.680001,-1.28192 -1.520673,-1.28192 z"
   id="path63"
   inkscape:connector-curvature="0"
   style="stroke-width:0.349051;fill:#ff0000;fill-opacity:1" />
<path
   d="m 21.810654,18.33472 c 0,0.7088 0.68533,1.2816 1.527526,1.2816 0.838007,0 1.518008,-0.5728 1.518008,-1.2816 0,-0.70816 -0.680001,-1.28096 -1.518008,-1.28096 -0.842576,0 -1.527526,0.5728 -1.527526,1.28096 z"
   id="path65"
   inkscape:connector-curvature="0"
   style="stroke-width:0.349051;fill:#ff0000;fill-opacity:1" />
<path
   d="m 10.677835,6.44384 c -0.8433376,0 -1.5260033,0.57408 -1.5260033,1.28384 0,0.70784 0.6826657,1.28064 1.5260033,1.28064 0.844861,0 1.526384,-0.57312 1.526384,-1.28064 0,-0.70976 -0.681523,-1.28384 -1.526384,-1.28384 z"
   id="path67"
   inkscape:connector-curvature="0"
   style="stroke-width:0.349051;fill:#ff0000;fill-opacity:1" />
<path
   d="M 17.558176,0 C 11.002986,0 4.9576071,4.13568 3.7011672,8.69344 3.4167549,9.70656 3.1053101,12.35264 3.1053101,12.35264 L 0.08680857,18.74048 C 0.02893619,18.85536 0,18.98496 0,19.12096 c 0,0.53856 0.52503956,0.97856 1.1684891,0.97856 h 1.936821 v 3.3936 c 0,2.6464 2.5509537,4.78976 5.6954799,4.78976 h 2.263876 V 32 H 26.479279 V 21.69408 C 29.841208,19.47136 32,16.01856 32,12.14464 32,5.43648 25.532381,0 17.558176,0 Z M 6.6534201,14.77344 c -0.883696,0 -1.6063393,-0.60704 -1.6063393,-1.35808 0,-0.74656 0.7222625,-1.35264 1.6063393,-1.35264 0.8920723,0 1.6181422,0.60608 1.6181422,1.35264 0,0.75136 -0.7260699,1.35808 -1.6181422,1.35808 z M 27.97292,12.93888 26.470522,14.20192 24.638024,13.11456 c -0.352945,0.15488 -0.723786,0.27776 -1.110617,0.36064 l -0.338096,1.67552 h 0.699799 l 0.186943,0.89568 c 0.07348,0.01664 0.147346,0.0256 0.219686,0.04768 0.188086,0.05856 0.361703,0.13376 0.523517,0.22016 l 0.844861,-0.49888 0.692945,0.58176 -0.622128,0.74208 c 0.134401,0.19904 0.239485,0.4112 0.2985,0.63552 l 1.01962,0.1472 v 0.824 l -1.061502,0.1536 c -0.02132,0.06272 -0.0316,0.12608 -0.05787,0.18784 -0.06968,0.15936 -0.160291,0.30656 -0.265375,0.4448 l 0.596618,0.70656 -0.694088,0.58272 -0.877985,-0.52416 c -0.237962,0.11296 -0.48925,0.20128 -0.757671,0.25088 L 23.756232,21.4064 H 22.776209 L 22.599545,20.51072 C 22.523398,20.4928 22.44725,20.48416 22.371863,20.4608 22.183778,20.40224 22.009019,20.32704 21.845682,20.24 l -0.846003,0.504 -0.689519,-0.58368 0.623651,-0.7408 c -0.134401,-0.20032 -0.239485,-0.4112 -0.2985,-0.6368 l -1.02495,-0.14944 V 17.8128 l 1.07102,-0.1536 c 0.02094,-0.06304 0.0316,-0.1264 0.05901,-0.18912 0.06853,-0.15712 0.157626,-0.30304 0.260426,-0.44032 l -0.596999,-0.71104 0.691803,-0.58176 0.882935,0.52416 c 0.236439,-0.11168 0.487727,-0.2 0.754625,-0.25088 l 0.152676,-0.74432 h -1.845824 l -0.385689,-1.85824 c -0.083,-0.02208 -0.166002,-0.04 -0.248623,-0.06656 -0.297357,-0.09184 -0.573774,-0.20672 -0.838007,-0.336 l -1.768534,1.04736 -1.499733,-1.26432 1.290707,-1.53504 C 17.404734,10.95584 17.25853,10.64288 17.158776,10.31648 L 15.032347,10.00896 V 8.54144 l -1.070639,0.1552 c -0.01713,0.0432 -0.02132,0.08736 -0.04074,0.12928 -0.07006,0.15936 -0.160672,0.30528 -0.259284,0.44672 l 0.820874,0.9776 -0.988399,0.82816 -1.20504,-0.71424 c -0.223875,0.09728 -0.454984,0.17696 -0.698657,0.23104 l -0.243673,1.17216 -1.3877949,9.6e-4 -0.2528109,-1.22304 C 9.6574536,10.53088 9.6060538,10.52768 9.5573191,10.512 9.3665687,10.45216 9.1902864,10.37472 9.0208574,10.29088 L 7.8538913,10.98208 6.8696801,10.15264 7.7232977,9.13632 C 7.6102181,8.9504 7.5222673,8.75488 7.4579224,8.55328 L 6.0537556,8.35104 V 7.1776 L 7.5009459,6.96864 C 7.5169369,6.92544 7.5287399,6.88352 7.5470159,6.8416 7.6170719,6.68128 7.7092108,6.5344 7.8078223,6.39264 L 6.9854253,5.41504 7.9684943,4.58656 9.1788647,5.30208 C 9.4027394,5.20448 9.6353712,5.12384 9.8801866,5.06944 L 10.12348,3.89632 h 1.388175 L 11.764846,5.12 c 0.05026,0.01344 0.101657,0.01664 0.150011,0.032 0.191131,0.05984 0.365891,0.1376 0.5357,0.22016 l 1.163159,-0.68896 0.988019,0.82848 -0.855141,1.01504 c 0.116126,0.18688 0.210549,0.38144 0.273752,0.58624 l 1.394648,0.20128 v 0.8528 l 1.826407,-0.26336 c 0.02627,-0.06976 0.04721,-0.1392 0.07881,-0.20896 0.109272,-0.2512 0.24748,-0.48672 0.404345,-0.71008 L 16.469639,5.504 17.97889,4.2384 19.809104,5.32576 c 0.354087,-0.1552 0.72645,-0.27776 1.114805,-0.36192 l 0.359037,-1.78816 h 2.127191 l 0.385689,1.85664 c 0.083,0.0208 0.166002,0.04 0.248622,0.06528 0.295835,0.09184 0.573775,0.208 0.836485,0.3376 l 1.769295,-1.04736 1.497448,1.26304 -1.290706,1.54048 c 0.182755,0.29504 0.328578,0.60704 0.428712,0.9312 L 29.4163,8.43104 v 1.78848 l -2.21057,0.31968 c -0.02627,0.06976 -0.04759,0.13952 -0.07767,0.208 -0.110414,0.24992 -0.248622,0.4832 -0.404345,0.7056 z"
   id="path69"
   inkscape:connector-curvature="0"
   style="stroke-width:0.349051;fill:#980000;fill-opacity:1" />
</svg>