<?xml version="1.0" encoding="UTF-8" standalone="no"?>
<!-- Created with Inkscape (http://www.inkscape.org/) -->

<svg
   width="163.13455mm"
   height="163.13455mm"
   viewBox="0 0 163.13455 163.13455"
   version="1.1"
   id="svg5"
   inkscape:version="1.2.2 (b0a8486541, 2022-12-01)"
   sodipodi:docname="icone.svg"
   xmlns:inkscape="http://www.inkscape.org/namespaces/inkscape"
   xmlns:sodipodi="http://sodipodi.sourceforge.net/DTD/sodipodi-0.dtd"
   xmlns="http://www.w3.org/2000/svg"
   xmlns:svg="http://www.w3.org/2000/svg">
  <sodipodi:namedview
     id="namedview7"
     pagecolor="#ffffff"
     bordercolor="#000000"
     borderopacity="0.25"
     inkscape:showpageshadow="2"
     inkscape:pageopacity="0.0"
     inkscape:pagecheckerboard="0"
     inkscape:deskcolor="#d1d1d1"
     inkscape:document-units="mm"
     showgrid="false"
     inkscape:zoom="0.54163861"
     inkscape:cx="339.7099"
     inkscape:cy="402.48239"
     inkscape:window-width="1541"
     inkscape:window-height="831"
     inkscape:window-x="0"
     inkscape:window-y="0"
     inkscape:window-maximized="1"
     inkscape:current-layer="layer1" />
  <defs
     id="defs2" />
  <g
     inkscape:label="Layer 1"
     inkscape:groupmode="layer"
     id="layer1"
     transform="translate(-14.912696,-42.176364)">
    <rect
       style="fill:#7fe1e2;fill-opacity:1;stroke:#000000;stroke-width:3.365"
       id="rect1386"
       width="159.76955"
       height="159.76955"
       x="16.595196"
       y="43.858864"
       ry="7.5379229" />
    <path
       style="fill:none;stroke:#000000;stroke-width:3.365"
       d="m 131.2732,123.87149 c -0.81414,0.81414 -1.62829,1.62828 -2.44243,2.44243 -0.32566,0.48848 -0.59482,1.01978 -0.97698,1.46546 -2.6592,3.10126 -1.32465,0.75143 -3.47665,3.96705 -2.91579,4.35691 -4.76498,9.30127 -7.90165,13.55741 -3.11005,4.22002 -8.10146,7.41287 -12.78462,9.58083 -3.03072,1.40301 -6.192873,2.52152 -9.376657,3.53009 -3.204152,1.01501 -7.089772,1.47669 -9.901399,3.58541 -1.017386,0.76304 -2.103287,1.47686 -2.930919,2.44244 -1.090157,1.27184 -0.972823,2.42998 -1.465461,3.90789 -1.618816,4.85645 -3.907896,9.47605 -3.907896,14.65461"
       id="path1216" />
    <path
       style="fill:none;stroke:#000000;stroke-width:3.365"
       d="m 65.688122,127.16305 c 16.467984,4.9313 33.660053,7.89159 49.403948,14.7939 1.80291,0.79041 7.26099,16.14436 7.8158,20.02796 0.0921,0.64477 -0.15797,1.32208 0,1.95395 0.17661,0.70645 0.76772,1.25646 0.97697,1.95394 0.2846,0.94868 0.24827,1.97005 0.48848,2.93092 0.3312,1.32476 1.43475,2.60989 1.95395,3.9079 0.48513,1.21281 1.63746,2.15344 1.95395,3.41941 0.56724,2.26896 1.97733,4.5133 2.44244,6.83881 0.26479,1.32397 -0.16799,1.13015 0.48466,2.43289"
       id="path1218" />
    <path
       style="fill:#7f3be2;stroke:#000000;stroke-width:3.365"
       d="m 69.450997,74.999905 c -0.549468,10.976509 2.732823,20.520273 11.338237,26.969815 1.377172,1.03216 3.083775,1.54818 4.516597,2.50159 5.320495,3.54027 0.988512,1.28695 4.982183,4.4727 4.619495,3.68498 8.099073,5.93538 13.918056,6.99338 0.88284,0.16052 3.18822,0.68985 4.39638,0.48849 4.04114,-0.67353 7.53636,-3.72259 10.86883,-5.9439 4.57442,-3.04914 10.06693,-6.14423 13.07466,-10.956603 1.29341,-2.06946 0.48849,-6.476693 0.48849,-8.792763 0,-10.886419 -5.29216,-19.194282 -13.3418,-26.093974 -2.09606,-1.796627 -4.11886,-3.978216 -6.83882,-4.884868 -8.24849,-2.749499 -18.393248,-2.050006 -26.654966,0.22707 -1.792277,0.493983 -3.500223,1.264826 -5.291304,1.763132 -0.990367,0.275535 -12.369278,2.155581 -12.568994,2.696218 -0.202332,0.547718 0,1.167789 0,1.751683 0,1.465461 0,2.930922 0,4.396382 0,1.68573 1.491332,7.353177 2.442432,8.304277"
       id="path1220" />
    <path
       style="fill:#7f3be2;stroke:#000000;stroke-width:3.365"
       d="m 80.892274,77.627429 c -0.325657,0.976974 -1.095225,1.907913 -0.976972,2.930922 0.384607,3.327243 1.143421,6.659596 2.442433,9.746837 0.276129,0.656251 5.047874,0.773623 5.760712,0.488487 0.427609,-0.171043 0.608533,-0.700643 0.976971,-0.976974 2.558627,-1.918968 4.595516,-5.329849 3.907896,-8.767956 -0.674966,-3.374829 -3.928047,-4.396383 -6.779662,-4.396383 -0.266507,0 -0.597252,-0.173532 -0.799516,0 -0.253727,0.217689 -0.4475,0.826236 -0.734639,0.963618"
       id="path1222" />
    <path
       style="fill:#7f3be2;stroke:#000000;stroke-width:3.365"
       d="m 107.29537,77.228625 c -0.63605,4.270444 -2.05502,8.496279 -1.90815,12.811331 0.0708,2.081686 4.82895,2.896574 6.29499,2.896574 0.48849,0 1.02854,0.218458 1.46546,0 2.81912,-1.40956 4.92796,-12.096568 2.44243,-14.582095 -1.92482,-1.924825 -5.90293,-1.521113 -8.29473,-1.12581 z"
       id="path1224" />
  </g>
</svg>
