<?xml version="1.0" encoding="UTF-8" standalone="no"?>
<!-- Created with Inkscape (http://www.inkscape.org/) -->

<svg
   xmlns:dc="http://purl.org/dc/elements/1.1/"
   xmlns:cc="http://creativecommons.org/ns#"
   xmlns:rdf="http://www.w3.org/1999/02/22-rdf-syntax-ns#"
   xmlns:svg="http://www.w3.org/2000/svg"
   xmlns="http://www.w3.org/2000/svg"
   xmlns:sodipodi="http://sodipodi.sourceforge.net/DTD/sodipodi-0.dtd"
   xmlns:inkscape="http://www.inkscape.org/namespaces/inkscape"
   id="svg3336"
   version="1.1"
   inkscape:version="0.48.3.1 r9886"
   width="50"
   height="50"
   xml:space="preserve"
   sodipodi:docname="dodec.eps"><metadata
     id="metadata3342"><rdf:RDF><cc:Work
         rdf:about=""><dc:format>image/svg+xml</dc:format><dc:type
           rdf:resource="http://purl.org/dc/dcmitype/StillImage" /><dc:title></dc:title></cc:Work></rdf:RDF></metadata><defs
     id="defs3340" /><sodipodi:namedview
     pagecolor="#ffffff"
     bordercolor="#666666"
     borderopacity="1"
     objecttolerance="10"
     gridtolerance="10"
     guidetolerance="10"
     inkscape:pageopacity="0"
     inkscape:pageshadow="2"
     inkscape:window-width="1551"
     inkscape:window-height="876"
     id="namedview3338"
     showgrid="false"
     inkscape:zoom="5.2660704"
     inkscape:cx="30.662151"
     inkscape:cy="31.925535"
     inkscape:window-x="49"
     inkscape:window-y="24"
     inkscape:window-maximized="1"
     inkscape:current-layer="g3344" /><g
     id="g3344"
     inkscape:groupmode="layer"
     inkscape:label="ink_ext_XXXXXX"
     transform="matrix(1.25,0,0,-1.25,0,50)"><g
       id="g3423"
       transform="matrix(0.07537796,0,0,0.07537796,-2.5079936,-1.8716518)"
       style="stroke:#000000;stroke-opacity:1;stroke-width:5.30659095;stroke-miterlimit:4;stroke-dasharray:none"><path
         d="M 261.793,166.036 386.463,221.585 371.854,356.11 240.092,384.652 171.151,268.145"
         style="fill:#59c192;fill-opacity:1;fill-rule:nonzero;stroke:#000000;stroke-opacity:1;stroke-width:5.30659095;stroke-miterlimit:4;stroke-dasharray:none"
         id="path3350"
         inkscape:connector-curvature="0" /><path
         d="M 261.793,166.036 386.463,221.585 371.854,356.11 240.092,384.652 171.151,268.145 261.793,166.036 z"
         style="fill:none;stroke:#000000;stroke-opacity:1;stroke-width:5.30659095;stroke-miterlimit:4;stroke-dasharray:none"
         id="path3352"
         inkscape:connector-curvature="0" /><path
         d="m 200.869,483.421 39.223,-98.769 131.762,-28.542 76.901,73.554 -108.823,95.708"
         style="fill:#591590;fill-opacity:1;fill-rule:nonzero;stroke:#000000;stroke-opacity:1;stroke-width:5.30659095;stroke-miterlimit:4;stroke-dasharray:none"
         id="path3354"
         inkscape:connector-curvature="0" /><path
         d="m 200.869,483.421 39.223,-98.769 131.762,-28.542 76.901,73.554 -108.823,95.708 -139.063,-41.951 z"
         style="fill:none;stroke:#000000;stroke-opacity:1;stroke-width:5.30659095;stroke-miterlimit:4;stroke-dasharray:none"
         id="path3356"
         inkscape:connector-curvature="0" /><path
         d="m 530.861,315.721 -82.106,113.943 -76.901,-73.554 14.609,-134.525 91.429,-45.81"
         style="fill:#181856;fill-opacity:1;fill-rule:nonzero;stroke:#000000;stroke-opacity:1;stroke-width:5.30659095;stroke-miterlimit:4;stroke-dasharray:none"
         id="path3358"
         inkscape:connector-curvature="0" /><path
         d="m 530.861,315.721 -82.106,113.943 -76.901,-73.554 14.609,-134.525 91.429,-45.81 52.969,139.946 z"
         style="fill:none;stroke:#000000;stroke-opacity:1;stroke-width:5.30659095;stroke-miterlimit:4;stroke-dasharray:none"
         id="path3360"
         inkscape:connector-curvature="0" /><path
         d="M 200.869,483.421 79.1926,413.549 69.2512,264.112 l 101.8998,4.033 68.941,116.507"
         style="fill:#1f6a49;fill-opacity:1;fill-rule:nonzero;stroke:#000000;stroke-opacity:1;stroke-width:5.30659095;stroke-miterlimit:4;stroke-dasharray:none"
         id="path3362"
         inkscape:connector-curvature="0" /><path
         d="M 200.869,483.421 79.1926,413.549 69.2512,264.112 l 101.8998,4.033 68.941,116.507 -39.223,98.769 z"
         style="fill:none;stroke:#000000;stroke-opacity:1;stroke-width:5.30659095;stroke-miterlimit:4;stroke-dasharray:none"
         id="path3364"
         inkscape:connector-curvature="0" /><path
         d="m 261.793,166.036 -20.696,-96.827 148.388,-4.3629 88.407,110.9289 -91.429,45.81"
         style="fill:#393990;fill-opacity:1;fill-rule:nonzero;stroke:#000000;stroke-opacity:1;stroke-width:5.30659095;stroke-miterlimit:4;stroke-dasharray:none"
         id="path3366"
         inkscape:connector-curvature="0" /><path
         d="m 261.793,166.036 -20.696,-96.827 148.388,-4.3629 88.407,110.9289 -91.429,45.81 -124.67,-55.549 z"
         style="fill:none;stroke:#000000;stroke-opacity:1;stroke-width:5.30659095;stroke-miterlimit:4;stroke-dasharray:none"
         id="path3368"
         inkscape:connector-curvature="0" /><path
         d="M 261.793,166.036 171.151,268.145 69.2512,264.112 104.404,126.37 241.097,69.209"
         style="fill:#0f4c60;fill-opacity:1;fill-rule:nonzero;stroke:#000000;stroke-opacity:1;stroke-width:5.30659095;stroke-miterlimit:4;stroke-dasharray:none"
         id="path3370"
         inkscape:connector-curvature="0" /><path
         d="M 261.793,166.036 171.151,268.145 69.2512,264.112 104.404,126.37 241.097,69.209 l 20.696,96.827 z"
         style="fill:none;stroke:#000000;stroke-opacity:1;stroke-width:5.30659095;stroke-miterlimit:4;stroke-dasharray:none"
         id="path3372"
         inkscape:connector-curvature="0" /><path
         d="m 339.932,525.372 108.823,-95.708 82.106,-113.943 -54.028,5.751 -145.831,160.623"
         style="fill:#410f69;fill-opacity:1;fill-rule:nonzero;stroke:#000000;stroke-opacity:1;stroke-width:5.30659095;stroke-miterlimit:4;stroke-dasharray:none"
         id="path3374"
         inkscape:connector-curvature="0" /><path
         d="m 339.932,525.372 108.823,-95.708 82.106,-113.943 -54.028,5.751 -145.831,160.623 8.93,43.277 z"
         style="fill:none;stroke:#000000;stroke-opacity:1;stroke-width:5.30659095;stroke-miterlimit:4;stroke-dasharray:none"
         id="path3376"
         inkscape:connector-curvature="0" /><path
         d="m 200.869,483.421 139.063,41.951 -8.93,-43.277 -199.299,-85.877 -52.5104,17.331"
         style="fill:#7f5a0f;fill-opacity:1;fill-rule:nonzero;stroke:#000000;stroke-opacity:1;stroke-width:5.30659095;stroke-miterlimit:4;stroke-dasharray:none"
         id="path3378"
         inkscape:connector-curvature="0" /><path
         d="m 200.869,483.421 139.063,41.951 -8.93,-43.277 -199.299,-85.877 -52.5104,17.331 121.6764,69.872 z"
         style="fill:none;stroke:#000000;stroke-opacity:1;stroke-width:5.30659095;stroke-miterlimit:4;stroke-dasharray:none"
         id="path3380"
         inkscape:connector-curvature="0" /><path
         d="m 389.485,64.8461 -21.033,65.9509 108.381,190.675 54.028,-5.751 -52.969,-139.946"
         style="fill:#7d1d1d;fill-opacity:1;fill-rule:nonzero;stroke:#000000;stroke-opacity:1;stroke-width:5.30659095;stroke-miterlimit:4;stroke-dasharray:none"
         id="path3382"
         inkscape:connector-curvature="0" /><path
         d="M 389.485,64.8461 368.452,130.797 476.833,321.472 530.861,315.721 477.892,175.775 389.485,64.8461 z"
         style="fill:none;stroke:#000000;stroke-opacity:1;stroke-width:5.30659095;stroke-miterlimit:4;stroke-dasharray:none"
         id="path3384"
         inkscape:connector-curvature="0" /><path
         d="M 151.703,177.61 104.404,126.37 69.2512,264.112 79.1926,413.549 131.703,396.218"
         style="fill:#5f440f;fill-opacity:1;fill-rule:nonzero;stroke:#000000;stroke-opacity:1;stroke-width:5.30659095;stroke-miterlimit:4;stroke-dasharray:none"
         id="path3386"
         inkscape:connector-curvature="0" /><path
         d="m 151.703,177.61 -47.299,-51.24 -35.1528,137.742 9.9414,149.437 52.5104,-17.331 20,-218.608 z"
         style="fill:none;stroke:#000000;stroke-opacity:1;stroke-width:5.30659095;stroke-miterlimit:4;stroke-dasharray:none"
         id="path3388"
         inkscape:connector-curvature="0" /><path
         d="m 104.404,126.37 47.299,51.24 216.749,-46.813 21.033,-65.9509 -148.388,4.3629"
         style="fill:#0f627d;fill-opacity:1;fill-rule:nonzero;stroke:#000000;stroke-opacity:1;stroke-width:5.30659095;stroke-miterlimit:4;stroke-dasharray:none"
         id="path3390"
         inkscape:connector-curvature="0" /><path
         d="M 104.404,126.37 151.703,177.61 368.452,130.797 389.485,64.8461 241.097,69.209 104.404,126.37 z"
         style="fill:none;stroke:#000000;stroke-opacity:1;stroke-width:5.30659095;stroke-miterlimit:4;stroke-dasharray:none"
         id="path3392"
         inkscape:connector-curvature="0" /><path
         d="M 331.002,482.095 476.833,321.472 368.452,130.797 151.703,177.61 l -20,218.608"
         style="fill:#d85252;fill-opacity:1;fill-rule:nonzero;stroke:#000000;stroke-opacity:1;stroke-width:5.30659095;stroke-miterlimit:4;stroke-dasharray:none"
         id="path3394"
         inkscape:connector-curvature="0" /><path
         d="M 331.002,482.095 476.833,321.472 368.452,130.797 151.703,177.61 l -20,218.608 199.299,85.877 z"
         style="fill:none;stroke:#000000;stroke-opacity:1;stroke-width:5.30659095;stroke-miterlimit:4;stroke-dasharray:none"
         id="path3396"
         inkscape:connector-curvature="0" /></g></g></svg>